<?xml version="1.0" encoding="UTF-8"?>
<svg id="Layer_1" data-name="Layer 1" xmlns="http://www.w3.org/2000/svg" viewBox="0 0 211.96 46.5">
  <defs>
    <style>
      .cls-1 {
        fill: #86bf0b;
      }

      .cls-2 {
        fill: #1252a6;
      }
    </style>
  </defs>
  <g>
    <path d="M75.67,18.04v4.07h8.17v4.04h-8.17v6.34h-5.23V14h14.51v4.04h-9.28Z"/>
    <path d="M87.24,24.25v-10.25h5.23v10.1c0,3.17,1.32,4.44,3.52,4.44s3.49-1.27,3.49-4.44v-10.1h5.15v10.25c0,5.52-3.22,8.62-8.7,8.62s-8.7-3.09-8.7-8.62Z"/>
    <path d="M123.03,28.46v4.04h-14.85V14h14.51v4.04h-9.33v3.12h8.22v3.91h-8.22v3.38h9.67Z"/>
    <path d="M125.93,14h5.23v14.35h8.83v4.15h-14.06V14Z"/>
    <path d="M144.27,18.15h-5.68v-4.15h16.57v4.15h-5.66v14.35h-5.23v-14.35Z"/>
    <path d="M171.97,28.46v4.04h-14.85V14h14.51v4.04h-9.33v3.12h8.22v3.91h-8.22v3.38h9.67Z"/>
    <path d="M173.9,23.25c0-5.63,4.31-9.62,10.18-9.62,3.41,0,6.16,1.24,7.96,3.49l-3.33,3.01c-1.16-1.4-2.59-2.17-4.36-2.17-3.04,0-5.15,2.11-5.15,5.29s2.11,5.29,5.15,5.29c1.77,0,3.2-.77,4.36-2.17l3.33,3.01c-1.8,2.25-4.55,3.49-7.96,3.49-5.87,0-10.18-3.99-10.18-9.62Z"/>
    <path d="M211.96,14v18.5h-5.23v-7.22h-7.14v7.22h-5.23V14h5.23v6.95h7.14v-6.95h5.23Z"/>
  </g>
  <g>
    <polygon class="cls-1" points="34.71 0 25.13 9.58 8.15 26.56 0 18.41 18.4 0 34.71 0"/>
    <polygon class="cls-2" points="44.39 46.5 28.1 46.5 23.42 41.83 20.76 39.17 12.61 31.02 20.76 22.87 28.91 31.02 31.57 33.68 44.39 46.5"/>
    <polygon class="cls-2" points="59.93 0 48.68 11.25 45.79 14.15 41.53 18.41 28.91 31.02 28.4 31.53 20.79 22.9 20.76 22.87 20.76 22.87 43.64 0 59.93 0"/>
    <rect class="cls-2" x="20.4" y="34.55" width="11.52" height="3.76" transform="translate(-18.09 29.17) rotate(-45)"/>
  </g>
</svg>